<?xml version="1.0" standalone="no"?>
<!DOCTYPE svg PUBLIC "-//W3C//DTD SVG 20010904//EN"
 "http://www.w3.org/TR/2001/REC-SVG-20010904/DTD/svg10.dtd">
<svg version="1.0" xmlns="http://www.w3.org/2000/svg"
 width="2292.000000pt" height="2840.000000pt" viewBox="0 0 2292.000000 2840.000000"
 preserveAspectRatio="xMidYMid meet">

<g transform="translate(0.000000,2840.000000) scale(0.100000,-0.100000)"
fill="#000000" stroke="none">
<path d="M11022 27529 c-24 -12 -54 -38 -67 -58 -17 -26 -250 -864 -809 -2916
-432 -1584 -789 -2888 -793 -2897 -6 -13 -174 205 -718 934 -390 524 -725 970
-744 991 -46 51 -79 67 -141 67 -60 0 -120 -27 -148 -67 -11 -16 -225 -431
-477 -923 -252 -492 -461 -898 -464 -902 -4 -5 -578 651 -1276 1457 -1002
1156 -1279 1469 -1311 1485 -97 48 -202 11 -251 -88 -19 -40 -24 -61 -19 -90
3 -20 334 -1295 736 -2832 521 -1992 737 -2804 752 -2825 26 -36 52 -56 93
-72 23 -9 1391 -12 5725 -12 5541 -1 5696 0 5736 18 46 21 86 68 102 121 42
135 1462 5593 1462 5619 0 37 -23 97 -48 124 -9 11 -35 28 -56 39 -50 26 -143
22 -184 -8 -15 -11 -590 -669 -1278 -1463 -688 -793 -1259 -1451 -1270 -1461
-19 -19 -26 -6 -483 888 -266 520 -477 921 -494 939 -17 18 -46 38 -65 44 -50
16 -133 7 -170 -19 -17 -13 -360 -464 -763 -1003 -645 -863 -734 -979 -741
-958 -4 13 -361 1319 -793 2903 -649 2381 -789 2885 -811 2913 -53 69 -152 91
-232 52z m823 -3584 c400 -1468 728 -2676 729 -2683 1 -14 -1454 -1971 -1466
-1972 -9 0 -1462 1946 -1466 1964 -2 11 1381 5103 1450 5339 6 21 14 34 18 30
4 -4 335 -1209 735 -2678z m-6423 -1347 c569 -656 1037 -1198 1041 -1205 7
-10 -928 -1852 -952 -1876 -13 -13 42 -218 -581 2168 -297 1139 -543 2078
-546 2088 -3 9 -3 17 0 17 3 0 470 -537 1038 -1192z m11852 -950 c-306 -1173
-560 -2136 -563 -2140 -6 -6 -964 1858 -964 1876 0 11 2076 2407 2081 2402 2
-2 -247 -964 -554 -2138z m-8760 480 c388 -520 706 -951 706 -956 0 -9 -426
-1574 -476 -1750 -8 -29 -19 -52 -23 -50 -5 2 -411 468 -903 1036 l-895 1032
426 834 c394 773 427 833 442 818 9 -9 334 -443 723 -964z m6354 139 l423
-827 -902 -1041 -903 -1041 -247 908 c-205 752 -246 912 -236 927 94 136 1425
1905 1432 1903 6 -1 200 -374 433 -829z m-7294 -2152 l824 -950 -1316 -3
c-723 -1 -1317 0 -1319 2 -7 7 970 1907 979 1904 5 -2 379 -431 832 -953z
m8396 -1 l486 -949 -1315 -3 c-723 -1 -1316 0 -1318 2 -7 7 1641 1905 1652
1902 5 -1 228 -430 495 -952z m-5597 -476 l356 -478 -833 0 -833 0 219 803
c120 441 221 808 224 816 3 8 110 -127 257 -325 139 -186 414 -554 610 -816z
m2337 1139 c0 -1 99 -364 219 -807 121 -442 219 -806 217 -807 -1 -2 -375 -2
-830 -1 l-828 3 603 808 c514 687 619 824 619 804z"/>
<path d="M19392 19695 c-40 -462 -132 -801 -241 -897 -112 -98 -488 -189 -931
-224 l-95 -8 130 -12 c461 -43 784 -123 896 -222 111 -97 199 -428 242 -905
l12 -132 23 201 c52 473 137 766 245 846 86 63 229 111 457 154 145 27 434 63
515 65 28 1 -28 9 -123 19 -476 51 -769 129 -872 232 -96 95 -173 379 -220
804 -11 104 -22 196 -23 204 -1 8 -8 -48 -15 -125z"/>
<path d="M5158 17936 c-20 -7 -48 -22 -62 -32 -14 -10 -649 -1011 -1411 -2224
l-1386 -2205 50 -5 c27 -3 131 -4 232 -3 164 1 185 4 197 20 7 10 556 883
1220 1940 664 1057 1210 1919 1214 1915 3 -4 491 -875 1084 -1937 592 -1061
1078 -1932 1080 -1934 5 -6 443 -5 450 1 3 3 -498 907 -1114 2009 -615 1102
-1126 2019 -1136 2037 l-17 32 2602 0 c2431 0 2601 -1 2595 -17 -7 -17 -2064
-3703 -2094 -3752 -9 -15 -152 -206 -316 -424 l-299 -398 -21 38 c-13 22 -30
39 -43 41 -20 3 -20 1 9 -55 l30 -58 -139 -195 c-250 -349 -592 -866 -782
-1182 l-52 -88 -775 0 -774 0 0 540 0 540 940 0 940 0 0 230 0 230 -1175 0
-1175 0 0 -1780 0 -1780 248 -1 247 0 -90 -46 c-154 -78 -428 -200 -649 -287
-459 -182 -567 -210 -896 -227 -336 -17 -825 -72 -1064 -120 -82 -16 -217 -52
-300 -80 -113 -38 -152 -47 -155 -37 -2 7 -23 50 -46 95 -50 97 -108 180 -204
289 -39 45 -71 84 -71 86 0 3 47 33 104 68 121 73 246 176 302 249 30 38 49
53 79 61 319 82 565 218 775 430 135 135 216 246 298 408 143 280 204 550 204
897 0 204 -14 336 -57 505 -154 616 -582 1057 -1173 1211 -216 56 -276 59
-1033 59 l-689 0 0 -1780 0 -1780 279 0 279 0 7 -37 c9 -48 47 -124 85 -166
16 -19 30 -39 30 -43 0 -11 -56 -35 -365 -161 -274 -112 -296 -128 -303 -221
-7 -101 36 -154 126 -154 56 1 266 82 562 219 102 47 192 87 201 90 17 5 142
-133 217 -240 44 -62 122 -211 122 -232 0 -6 -32 -33 -71 -60 -153 -104 -338
-306 -403 -440 -52 -105 -69 -183 -64 -295 3 -82 8 -102 33 -148 63 -116 176
-181 292 -169 182 19 382 213 490 477 47 115 66 203 72 345 l6 130 75 28 c250
96 663 164 1230 202 352 23 553 47 650 76 60 18 420 149 525 191 289 115 630
272 877 403 88 47 162 84 164 82 2 -1 -39 -109 -90 -238 -123 -310 -391 -1013
-522 -1369 -7 -19 -13 -54 -14 -77 -1 -97 128 -166 221 -117 17 8 48 31 70 51
30 27 45 34 56 27 8 -5 1199 -1433 2646 -3173 1448 -1741 2648 -3178 2668
-3194 74 -59 157 -43 239 45 21 24 1262 1515 2758 3313 l2719 3270 -104 3
-104 3 -26 -32 c-46 -54 -54 -59 -94 -59 -21 0 -39 3 -39 6 0 3 14 24 31 45
l31 40 -108 -3 -107 -3 -2331 -2802 c-1281 -1542 -2331 -2801 -2333 -2799 -2
2 1454 5489 1483 5589 5 15 -3 17 -79 17 l-84 0 -13 -45 c-12 -42 -15 -45 -46
-45 -37 0 -43 15 -24 64 l10 26 -88 0 -87 0 -749 -2818 c-412 -1549 -752
-2821 -757 -2826 -4 -5 -12 9 -18 30 -5 22 -343 1291 -751 2822 -407 1531
-740 2785 -740 2788 0 2 -39 4 -86 4 l-86 0 6 -27 c4 -16 9 -36 12 -46 5 -16
1 -18 -32 -15 -34 3 -38 6 -48 43 l-12 40 -86 3 -87 3 19 -68 c91 -326 1470
-5527 1466 -5530 -5 -6 67 -93 -2500 2997 -1182 1422 -2155 2590 -2162 2596
-11 9 128 134 658 590 370 318 715 617 768 664 435 389 796 505 1103 356 98
-48 174 -108 360 -282 202 -191 312 -284 467 -397 421 -306 892 -533 1366
-657 523 -136 1032 -164 1634 -89 552 68 1184 206 1749 379 71 22 132 40 134
40 3 0 7 -33 10 -72 9 -136 60 -233 162 -310 77 -58 144 -81 260 -86 170 -7
338 44 512 157 149 96 287 248 344 377 11 24 24 44 28 44 21 0 186 -34 296
-61 290 -71 488 -77 760 -23 203 41 468 135 524 187 24 23 383 188 531 245
102 39 332 113 337 108 4 -4 0 -19 -148 -531 -165 -566 -219 -742 -273 -886
-176 -469 -386 -1164 -386 -1276 0 -63 28 -109 83 -133 60 -28 98 -26 129 8
73 78 202 425 419 1127 195 635 463 1208 684 1465 131 152 320 266 503 303 71
15 98 13 137 -10 19 -11 19 -13 -14 -80 -18 -38 -47 -88 -64 -112 l-32 -43
-82 -3 c-178 -7 -304 -74 -359 -190 -40 -84 -27 -165 39 -233 110 -115 261
-100 447 44 l71 55 222 -20 c438 -39 546 -45 807 -46 402 0 705 46 1092 166
111 35 151 64 167 126 18 65 -9 150 -56 179 -48 30 -76 26 -259 -35 -210 -69
-366 -106 -522 -122 -157 -16 -899 -6 -1077 15 -71 9 -133 16 -137 16 -4 0 5
25 19 56 74 161 71 325 -7 431 -39 52 -129 99 -220 114 -131 22 -326 -7 -463
-69 -81 -37 -133 -72 -267 -180 -58 -47 -111 -90 -119 -96 -11 -9 -12 -3 -7
31 16 90 -32 176 -121 219 -50 25 -60 26 -146 21 -154 -10 -416 -94 -749 -242
-95 -43 -222 -97 -283 -121 -62 -25 -122 -57 -140 -73 -59 -57 -339 -119 -575
-128 -153 -5 -134 -7 -545 67 -60 11 -155 23 -210 26 -98 7 -101 8 -144 45
-96 85 -220 123 -396 124 -146 0 -230 -22 -374 -94 -106 -54 -307 -127 -621
-226 -1132 -355 -2001 -468 -2805 -365 -433 55 -830 173 -1190 352 -314 156
-523 307 -800 580 l-160 157 913 1 912 0 0 230 0 230 -920 0 -920 0 0 1072 0
1072 108 161 c112 164 292 449 292 460 0 3 17 32 38 63 230 339 434 799 538
1208 35 138 38 160 38 289 0 111 -4 151 -18 190 -60 164 -200 229 -377 175
-41 -12 -87 -29 -103 -37 -15 -8 -27 -10 -25 -5 18 47 1555 2780 1560 2775 4
-5 490 -872 1080 -1928 589 -1056 1073 -1922 1075 -1924 5 -6 444 -4 450 1 2
3 -507 920 -1131 2038 -624 1118 -1135 2034 -1135 2036 0 2 1170 4 2600 4
1430 0 2600 -3 2600 -7 0 -5 -511 -921 -1135 -2038 l-1134 -2030 47 -5 c40 -4
138 -4 363 -1 l46 1 1083 1940 c596 1067 1087 1937 1091 1933 4 -5 553 -876
1219 -1938 667 -1061 1214 -1932 1216 -1934 6 -6 454 -4 460 2 6 5 -2681 4295
-2746 4384 -17 24 -50 53 -73 65 l-42 23 -5925 2 c-4862 2 -5932 0 -5962 -11z
m4606 -3672 c27 -71 -23 -353 -100 -562 -54 -146 -189 -415 -310 -619 -60
-101 -149 -252 -199 -335 l-90 -153 -3 203 -2 202 -235 0 -235 0 0 -538 0
-539 -95 -118 c-371 -462 -859 -951 -1335 -1338 -141 -116 -501 -387 -513
-387 -13 0 144 302 366 703 l120 217 108 0 109 0 0 186 0 186 52 87 c352 584
864 1319 1292 1854 122 153 127 157 216 157 l38 0 103 188 c101 181 107 191
214 297 127 126 236 207 371 277 103 52 119 56 128 32z m-7369 -1753 c533
-119 882 -526 944 -1099 59 -550 -138 -1041 -520 -1295 -86 -57 -225 -127
-251 -127 -7 1 -22 15 -33 32 -27 43 -97 95 -148 110 -23 7 -87 12 -142 11
-171 -3 -335 -58 -501 -169 l-96 -64 -159 0 -159 0 0 1316 0 1316 483 -5 c453
-4 488 -5 582 -26z m6192 -2757 c-2 -2 -48 8 -103 22 -122 32 -316 43 -432 24
-199 -32 -399 -126 -599 -282 -35 -26 -65 -48 -68 -48 -3 0 -5 97 -5 215 l0
215 -222 2 -223 3 155 117 c361 272 629 506 971 847 146 147 323 333 395 415
l129 148 3 -837 c1 -461 1 -840 -1 -841z m-1841 1184 c-115 -207 -217 -402
-364 -700 l-167 -338 -357 0 -358 0 0 550 0 550 640 0 641 0 -35 -62z m-4786
-1533 c-30 -19 -72 -42 -93 -51 -36 -17 -39 -17 -65 3 -15 11 -35 34 -45 52
l-19 31 139 0 138 0 -55 -35z m5360 7 c-319 -251 -854 -705 -1248 -1060 -106
-96 -195 -172 -198 -170 -18 18 301 889 439 1201 l26 57 508 0 508 0 -35 -28z
m7810 -668 c0 -3 -18 -26 -40 -52 -46 -52 -92 -128 -129 -216 -14 -33 -37 -75
-50 -93 -33 -45 -101 -90 -154 -105 -59 -15 -144 2 -182 38 -26 24 -27 30 -22
83 8 98 69 181 166 231 31 15 64 37 75 48 17 20 109 56 166 65 40 7 170 8 170
1z m150 -191 c0 -5 -16 -26 -35 -48 -23 -27 -34 -35 -35 -23 0 9 12 30 26 47
24 29 44 40 44 24z m-13140 -493 c-26 -122 -142 -301 -223 -345 -34 -18 -38
-18 -53 -3 -43 43 61 233 202 368 88 84 96 82 74 -20z"/>
<path d="M21027 17485 c-52 -404 -91 -542 -169 -609 -70 -60 -298 -119 -558
-144 -96 -9 -106 -6 130 -38 235 -31 386 -79 444 -144 61 -67 111 -246 141
-505 18 -147 25 -177 25 -104 0 70 38 315 65 416 32 121 66 186 115 222 70 51
247 96 489 126 68 8 126 16 127 18 2 1 -50 8 -114 15 -232 25 -434 77 -512
132 -37 27 -82 120 -109 230 -20 81 -58 320 -63 405 -3 36 -4 34 -11 -20z"/>
<path d="M13882 12983 c18 -32 62 -112 98 -176 36 -64 68 -117 72 -117 3 0 35
52 70 115 l63 116 3 -1131 c2 -1073 1 -1136 -17 -1223 -67 -332 -289 -573
-618 -674 -81 -25 -101 -27 -263 -27 -162 0 -182 2 -264 28 -304 92 -507 296
-603 601 l-28 90 -3 1208 -2 1207 -236 0 -235 0 4 -1222 c3 -1100 5 -1231 20
-1297 123 -548 496 -927 1036 -1052 111 -26 393 -37 513 -19 310 45 571 174
781 388 183 184 296 397 359 670 22 97 22 98 25 1315 l4 1217 -216 0 c-213 0
-216 0 -205 20 9 17 8 20 -9 20 -15 0 -38 -34 -97 -140 -43 -77 -80 -140 -83
-140 -3 0 -40 62 -82 138 -57 104 -81 138 -98 140 -21 3 -20 1 11 -55z"/>
<path d="M15567 12988 c14 -18 1195 -1707 1217 -1740 l18 -27 -378 -538 c-208
-296 -490 -697 -626 -890 l-247 -353 283 0 283 0 484 694 c266 382 488 694
493 693 5 -2 225 -313 490 -692 l482 -690 283 -3 c228 -2 282 0 274 10 -34 43
-1224 1749 -1229 1762 -4 10 206 320 602 888 334 480 612 879 617 886 7 9 -49
12 -274 12 l-284 -1 -479 -690 c-264 -379 -482 -691 -485 -693 -3 -2 -222 309
-486 690 l-480 694 -284 0 c-225 0 -281 -3 -274 -12z"/>
<path d="M19610 11220 l0 -1780 1175 0 1175 0 0 230 0 230 -940 0 -940 0 0
550 0 550 920 0 920 0 0 230 0 230 -920 0 -920 0 0 540 0 540 940 0 940 0 0
230 0 230 -1175 0 -1175 0 0 -1780z"/>
</g>
</svg>
